<svg version="1.1" id="Ñëîé_1" xmlns="http://www.w3.org/2000/svg" xmlns:xlink="http://www.w3.org/1999/xlink" x="0" y="0" width="100%" height="100%" viewBox="0 0 368.7 352.7" xml:space="preserve"><style>.st6{fill:#24126a}.st8{fill:#453c9e}.st11{fill:#fff}.st13{fill:#adb1f2}.st14{fill:#9198db}.st16{opacity:.11}.st30{fill:#160a5b}.st34{fill:#fcd1c5}.st45,.st46{opacity:.3;fill:#4846a5}.st46{opacity:.1}</style><linearGradient id="SVGID_1_" gradientUnits="userSpaceOnUse" x1="-852.159" y1="255.181" x2="-801.096" y2="255.181" gradientTransform="matrix(.866 .5 -1 .5774 1105.33 392.267)"><stop offset="0" stop-color="#42e8e0"/><stop offset=".151" stop-color="#43e3e0"/><stop offset=".329" stop-color="#45d5df"/><stop offset=".52" stop-color="#49bddd"/><stop offset=".721" stop-color="#4e9cdb"/><stop offset=".927" stop-color="#5472d8"/><stop offset="1" stop-color="#5761d7"/></linearGradient><path d="M155.5 139.5c-.2 0-.3 0-.5-.1l-42.4-24.5c-.4-.3-.6-.8-.3-1.3.3-.4.8-.6 1.3-.3l42.4 24.5c.4.3.6.8.3 1.3-.2.2-.5.4-.8.4z" fill="url(#SVGID_1_)"/><linearGradient id="SVGID_2_" gradientUnits="userSpaceOnUse" x1="301.663" y1="2031.577" x2="376.995" y2="2031.577" gradientTransform="matrix(1 0 0 -1 -298.105 2186.111)"><stop offset="0" stop-color="#42e8e0"/><stop offset=".151" stop-color="#43e3e0"/><stop offset=".329" stop-color="#45d5df"/><stop offset=".52" stop-color="#49bddd"/><stop offset=".721" stop-color="#4e9cdb"/><stop offset=".927" stop-color="#5472d8"/><stop offset="1" stop-color="#5761d7"/></linearGradient><path d="M77.9 195.1c-.2 0-.3 0-.5-.1L4.1 152.3c-.3-.2-.5-.5-.5-.9s.2-.7.5-.9L71.3 114c.5-.3 1.1-.1 1.4.4.3.5.1 1.1-.4 1.4L6.6 151.5l71.8 41.8c.5.3.6.9.4 1.4-.2.2-.6.4-.9.4z" fill="url(#SVGID_2_)"/><linearGradient id="SVGID_3_" gradientUnits="userSpaceOnUse" x1="426.704" y1="403.473" x2="426.704" y2="355.816" gradientTransform="matrix(-.866 -.5 0 1.1547 576.732 -161.7)"><stop offset="0" stop-color="#c0bff6"/><stop offset=".294" stop-color="#c5c4f7"/><stop offset=".64" stop-color="#d3d2f9"/><stop offset="1" stop-color="#e9e9fd"/></linearGradient><path d="M167.5 67.9l79.5 45.9c2.2 1.3 3.9-.1 3.9-3V66.3c0-2.9-1.8-6.3-3.9-7.5l-79.5-45.9c-2.2-1.3-3.9.1-3.9 3v44.5c-.1 2.9 1.7 6.2 3.9 7.5z" fill="url(#SVGID_3_)"/><linearGradient id="SVGID_4_" gradientUnits="userSpaceOnUse" x1="239.744" y1="188.142" x2="438.112" y2="188.142" gradientTransform="matrix(-1 0 0 1 558.22 0)"><stop offset="0" stop-color="#42e8e0"/><stop offset=".151" stop-color="#43e3e0"/><stop offset=".329" stop-color="#45d5df"/><stop offset=".52" stop-color="#49bddd"/><stop offset=".721" stop-color="#4e9cdb"/><stop offset=".927" stop-color="#5472d8"/><stop offset="1" stop-color="#5761d7"/></linearGradient><path d="M238.4 244.6l-116.9-67.5c-.9-.5-1.4-1.4-1.4-2.4s.5-1.9 1.4-2.4l72.6-41.9.6-.3 122.4 70.7c.9.5 1.4 1.4 1.4 2.4s-.5 1.9-1.4 2.4l-67.7 39.1c-1.7 1-3.6 1.5-5.5 1.5-1.9-.1-3.8-.6-5.5-1.6zm-115.8-70.2c-.2.1-.2.3-.2.4 0 .1 0 .3.2.4l116.9 67.5c2.7 1.6 6.1 1.6 8.8 0l67.7-39.1c.2-.1.2-.3.2-.4 0-.1 0-.3-.2-.4l-121.3-70-72.1 41.6z" fill="url(#SVGID_4_)"/><linearGradient id="SVGID_5_" gradientUnits="userSpaceOnUse" x1="213.357" y1="92.925" x2="363.722" y2="92.925" gradientTransform="matrix(-1 0 0 1 558.22 0)"><stop offset="0" stop-color="#c0bff6"/><stop offset=".294" stop-color="#c5c4f7"/><stop offset=".64" stop-color="#d3d2f9"/><stop offset="1" stop-color="#e9e9fd"/></linearGradient><path d="M194.5 102.3l16.3-96.6-1.3-.6 2-1.1c.4-.3.9-.2 1.5.1l130.2 75.1c1.1.6 1.9 2.2 1.7 3.3l-16.4 97.4c-.1.5-.3.8-.7 1l-1.9 1.1-.3-1.8h.1l-129.4-74.7c-1.2-.5-2-2.1-1.8-3.2z" fill="url(#SVGID_5_)"/><linearGradient id="SVGID_6_" gradientUnits="userSpaceOnUse" x1="213.358" y1="131.486" x2="239.177" y2="131.486" gradientTransform="matrix(-1 0 0 1 558.22 0)"><stop offset="0" stop-color="#5761d7"/><stop offset=".178" stop-color="#5c66d9"/><stop offset=".388" stop-color="#6a73df"/><stop offset=".613" stop-color="#8289e8"/><stop offset=".849" stop-color="#a3a7f5"/><stop offset="1" stop-color="#bcbeff"/></linearGradient><path d="M342.4 81.9l2.1-.9c.2.5.4 1.1.3 1.6L328.4 180c-.1.5-.3.8-.7 1l-1.9 1.1-.3-1.8h.1l-6.5-3.8 23.3-94.6z" fill="url(#SVGID_6_)"/><path class="st6" d="M194.2 106.8l130.2 75.1c1 .6 1.9.2 2-.8l16.4-97.4c.2-1.1-.6-2.7-1.7-3.3L210.9 5.3c-1-.6-1.9-.2-2 .8l-16.4 97.4c-.2 1.1.6 2.6 1.7 3.3z"/><path class="st8" d="M212.6 11.5l125.5 72.4-15.6 91.7-125.3-72.4z" opacity=".51"/><linearGradient id="SVGID_8_" gradientUnits="userSpaceOnUse" x1="233.503" y1="174.834" x2="445.867" y2="174.834" gradientTransform="matrix(-1 0 0 1 558.22 0)"><stop offset="0" stop-color="#5761d7"/><stop offset=".178" stop-color="#5c66d9"/><stop offset=".388" stop-color="#6a73df"/><stop offset=".613" stop-color="#8289e8"/><stop offset=".849" stop-color="#a3a7f5"/><stop offset="1" stop-color="#bcbeff"/></linearGradient><path d="M112.4 152.9l7.1 3.7 71.2-41.1c1.2-.7 3.3-.6 4.6.2l122.8 70.9c1.2-.7 6.5-3.2 6.5-3.2l-2.6 6.8c-.1.3-.3.6-.7.8l-75 43.3c-1.2.7-3.3.6-4.6-.2L116 161.4c-.6-.3-.9-.7-1.1-1.1l-2.5-7.4z" fill="url(#SVGID_8_)"/><linearGradient id="SVGID_9_" gradientUnits="userSpaceOnUse" x1="304.858" y1="167.753" x2="517.335" y2="167.753" gradientTransform="matrix(-1 0 0 1 558.22 0)"><stop offset="0" stop-color="#c0bff6"/><stop offset=".294" stop-color="#c5c4f7"/><stop offset=".64" stop-color="#d3d2f9"/><stop offset="1" stop-color="#e9e9fd"/></linearGradient><path d="M113.5 154l128.8 74.4c1.4.8 3.5.9 4.8.2l76.9-44.4c1.2-.7 1.1-1.9-.3-2.8L194.9 107c-1.4-.8-3.5-.9-4.8-.2l-76.9 44.4c-1.3.8-1.2 2 .3 2.8z" fill="url(#SVGID_9_)"/><path class="st11" d="M113.5 153.3l128.8 74.4c1.4.8 3.5.9 4.8.2l76.9-44.4c.4-.2.6-.5.7-.8.2.6 0 1.2-.7 1.6l-76.9 44.4c-1.2.7-3.4.6-4.8-.2L113.5 154c-.9-.5-1.3-1.3-1.1-1.9.1.4.5.8 1.1 1.2z"/><path d="M281.2 212.3v-1.4c0-.1-.1-.2-.2-.1l-5 2.9c-.1.1-.2.2-.2.3v1.4c0 .1.1.2.2.1l5-2.9c.1 0 .2-.1.2-.3zm-7.5 4.3v-1.4c0-.1-.1-.2-.2-.1l-5 2.9c-.1.1-.2.2-.2.3v1.4c0 .1.1.2.2.1l5-2.9c.1 0 .2-.1.2-.3z" fill="#2842a2"/><path class="st13" d="M303.9 180.1l-107.1-61.8c-.7-.4-1.6-.4-2.3 0l-38.1 22.1c-.5.3-.5 1.1 0 1.4l107 61.8c.7.4 1.6.4 2.3 0l38.2-22c.5-.4.5-1.2 0-1.5z"/><path class="st14" d="M303.9 181.5l-.4.2-106.7-61.6c-.7-.4-1.6-.4-2.3 0L156.8 142l-.4-.2c-.5-.3-.5-1.1 0-1.4l38.1-22.1c.7-.4 1.6-.4 2.3 0l107.1 61.8c.5.3.5 1.1 0 1.4z"/><path class="st6" d="M191.6 123.8l93 53.7 4.2-2.4-93-53.6zm-10.1 5.9l87.2 50.4 4.2-2.4-87.3-50.4zm-6.6 3.8l102.7 59.3 4.1-2.4L179 131.1zm-6.6 3.8L271 196.6l4.1-2.4-102.7-59.3zm-6.6 3.8l102.7 59.3 4.1-2.4-102.7-59.3zm128.6 39.7l4.1 2.4 4.1-2.4-4.1-2.4zm-14.6 3.3l8.6 4.9 4.1-2.4-8.6-4.9z"/><linearGradient id="SVGID_10_" gradientUnits="userSpaceOnUse" x1="340.841" y1="179.815" x2="395.229" y2="179.815" gradientTransform="matrix(-1 0 0 1 558.22 0)"><stop offset="0" stop-color="#c0bff6"/><stop offset=".294" stop-color="#c5c4f7"/><stop offset=".64" stop-color="#d3d2f9"/><stop offset="1" stop-color="#e9e9fd"/></linearGradient><path d="M192.7 195l-28.9-16.7c-1.1-.7-1.1-1.7 0-2.4l19.7-11.4c1.1-.7 3-.7 4.1 0l28.9 16.7c1.1.7 1.1 1.7 0 2.4L196.8 195c-1.1.7-3 .7-4.1 0z" fill="url(#SVGID_10_)"/><path class="st14" d="M216.5 182.2l-28.9-16.7c-1.1-.7-3-.7-4.1 0L163.8 177c-.3.2-.6.4-.7.7-.3-.6-.1-1.2.7-1.7l19.7-11.4c1.1-.7 3-.7 4.1 0l28.9 16.7c.8.5 1 1.1.7 1.7-.1-.3-.3-.6-.7-.8z"/><g class="st16"><defs><path id="SVGID_7_" class="st16" d="M212.6 11.5l125.5 72.4-15.6 91.7-125.3-72.4z"/></defs><clipPath id="SVGID_11_"><use xlink:href="#SVGID_7_" overflow="visible"/></clipPath><g clip-path="url(#SVGID_11_)"><linearGradient id="SVGID_12_" gradientUnits="userSpaceOnUse" x1="223.679" y1="120.658" x2="436.157" y2="120.658" gradientTransform="matrix(-1 0 0 1 558.22 0)"><stop offset="0" stop-color="#c0bff6"/><stop offset=".294" stop-color="#c5c4f7"/><stop offset=".64" stop-color="#d3d2f9"/><stop offset="1" stop-color="#e9e9fd"/></linearGradient><path d="M194.6 106.9l128.8 74.4c1.4.8 3.5.9 4.8.2l76.9-44.4c1.2-.7 1.1-1.9-.3-2.8L275.9 60c-1.4-.8-3.5-.9-4.8-.2l-76.9 44.4c-1.1.7-1 1.9.4 2.7z" fill="url(#SVGID_12_)"/><linearGradient id="SVGID_13_" gradientUnits="userSpaceOnUse" x1="209.695" y1="105.061" x2="264.083" y2="105.061" gradientTransform="matrix(-1 0 0 1 558.22 0)"><stop offset="0" stop-color="#c0bff6"/><stop offset=".294" stop-color="#c5c4f7"/><stop offset=".64" stop-color="#d3d2f9"/><stop offset="1" stop-color="#e9e9fd"/></linearGradient><path d="M323.9 120.3L295 103.6c-1.1-.7-1.1-1.7 0-2.4l19.7-11.4c1.1-.7 3-.7 4.1 0l28.9 16.7c1.1.7 1.1 1.7 0 2.4L328 120.3c-1.2.6-3 .6-4.1 0z" fill="url(#SVGID_13_)"/><path class="st14" d="M347.7 107.5l-28.9-16.7c-1.1-.7-3-.7-4.1 0L295 102.2c-.3.2-.6.4-.7.7-.3-.6-.1-1.2.7-1.7l19.7-11.4c1.1-.7 3-.7 4.1 0l28.9 16.7c.8.5 1 1.1.7 1.7-.1-.3-.4-.5-.7-.7z"/><path class="st13" d="M360.4 146.3L253.3 84.5c-.7-.4-1.6-.4-2.3 0l-38.1 22.1c-.5.3-.5 1.1 0 1.4l107 61.8c.7.4 1.6.4 2.3 0l38.2-22c.5-.4.5-1.2 0-1.5z"/><path class="st14" d="M360.4 147.7l-.4.3-106.7-61.6c-.7-.4-1.6-.4-2.3 0l-37.7 21.8-.4-.2c-.5-.3-.5-1.1 0-1.4L251 84.5c.7-.4 1.6-.4 2.3 0l107.1 61.8c.5.3.5 1.1 0 1.4z"/><path class="st6" d="M222.8 105.1l93.3 53.8-3.7 2.1-93.2-53.8zm9.9-5.7l88.6 51.2-3.7 2.1-88.6-51.2zm95.3 55l8.2 4.8-3.7 2.1-8.2-4.8zm-7.4 7.1l5.8 3.3-3.7 2.2-5.8-3.3zm-81.8-65.7l103.6 59.8-3.7 2.2L235.1 98zm6.2-3.5l103.5 59.8-3.6 2.1-103.6-59.8zm6.2-3.6l103.5 59.8-3.7 2.1-103.5-59.7z"/></g></g><path d="M326.5 89.3l2.5 1.6.3-1.8-2.5-1.6zm-2 12.5l2.5 1.5 1.7-10.7-2.5-1.6zm-1 5.9l2.5 1.6.7-4.3-2.5-1.6zm-1 6.2l2.5 1.5.7-4.2-2.5-1.6zm-.7-21l2.5 1.6.7-4.3-2.5-1.5zm-1.3 8.2l2.5 1.6 1-6.3-2.5-1.6zm-1.2 7.5l2.5 1.6.8-5.4-2.4-1.6zm2.2 11.4l2.5 1.6.7-4.3-2.5-1.6zm1.3-33l2.5 1.6.3-1.9-2.5-1.6zm-4.1 37.8l4.3 2.8.3-1.8-4.3-2.8z" fill="#42e8e0"/><linearGradient id="SVGID_14_" gradientUnits="userSpaceOnUse" x1="364.425" y1="225.014" x2="494.084" y2="225.014" gradientTransform="matrix(-1 0 0 1 558.22 0)"><stop offset="0" stop-color="#42e8e0"/><stop offset=".151" stop-color="#43e3e0"/><stop offset=".329" stop-color="#45d5df"/><stop offset=".52" stop-color="#49bddd"/><stop offset=".721" stop-color="#4e9cdb"/><stop offset=".927" stop-color="#5472d8"/><stop offset="1" stop-color="#5761d7"/></linearGradient><path d="M166 262.3L65.4 204.2c-.8-.5-1.2-1.2-1.2-1.9 0-.9.6-1.7 1.6-2.3l20.9-12.1c1.6-.9 3.9-1 5.3-.2l100.6 58.1c.8.5 1.2 1.2 1.2 1.9 0 .9-.6 1.7-1.6 2.3l-20.9 12.1c-.9.5-1.9.7-3 .7-.8.1-1.7-.1-2.3-.5zm-78.4-72.7l-20.9 12.1c-.5.3-.6.5-.6.6 0 0 .1.1.3.2L167 260.6c.8.5 2.4.4 3.4-.2l20.9-12.1c.5-.3.6-.5.6-.6 0 0-.1-.1-.3-.2L91 189.4c-.4-.2-.9-.3-1.4-.3-.7 0-1.5.2-2 .5z" fill="url(#SVGID_14_)"/><linearGradient id="SVGID_15_" gradientUnits="userSpaceOnUse" x1="273.744" y1="-4.171" x2="394.382" y2="-4.171" gradientTransform="matrix(-.866 -.5 0 1.1547 430.98 356.897)"><stop offset="0" stop-color="#5761d7"/><stop offset=".178" stop-color="#5c66d9"/><stop offset=".388" stop-color="#6a73df"/><stop offset=".613" stop-color="#8289e8"/><stop offset=".849" stop-color="#a3a7f5"/><stop offset="1" stop-color="#bcbeff"/></linearGradient><path d="M106.3 154.3c2.6 1.5 5.1 3.7 7.4 6.2 3.1-9.9 12.5-13 23.7-6.6 9.2 5.3 17.3 15.8 21.5 26.9 1.4 0 3 .5 4.6 1.5 6 3.5 10.9 11.9 10.9 18.9v.4c1.7.1 3.6.7 5.6 1.9 7.7 4.4 13.9 15.3 13.9 24.1 0 8.9-6.2 12.5-13.9 8l-73.7-42.5c-9.3-5.4-16.8-18.4-16.8-29.2s7.5-15 16.8-9.6z" fill="url(#SVGID_15_)"/><radialGradient id="SVGID_16_" cx="388.854" cy="183.851" r="49.835" fx="341.857" fy="167.272" gradientTransform="matrix(-1 0 0 1 558.22 0)" gradientUnits="userSpaceOnUse"><stop offset="0" stop-color="#2b237c"/><stop offset="1" stop-color="#180d5b"/></radialGradient><path d="M106.3 154.3c1.5.9 3 2 4.4 3.2l8.2-4.8c4.5-3.2 11.1-3 18.4 1.2 9.2 5.3 17.3 15.8 21.5 26.9 1.4 0 3 .5 4.6 1.5 6 3.5 10.9 11.9 10.9 18.9v.4c1.7.1 3.6.7 5.6 1.9 7.7 4.4 13.9 15.3 13.9 24.1 0 4.4-1.5 7.5-4 9h-.1l-20.2 11.7-4.4-21.2-59-34c-9.3-5.4-16.8-18.4-16.8-29.2.1-10.6 7.7-15 17-9.6z" fill="url(#SVGID_16_)"/><linearGradient id="SVGID_17_" gradientUnits="userSpaceOnUse" x1="364.301" y1="199.504" x2="484.387" y2="199.504" gradientTransform="matrix(-1 0 0 1 558.22 0)"><stop offset="0" stop-color="#5761d7"/><stop offset=".178" stop-color="#5c66d9"/><stop offset=".388" stop-color="#6a73df"/><stop offset=".613" stop-color="#8289e8"/><stop offset=".849" stop-color="#a3a7f5"/><stop offset="1" stop-color="#bcbeff"/></linearGradient><path d="M73.8 165.1l20.5-11.9c3.1-1.8 7.3-1.6 12 1.1 1.5.9 3 2 4.4 3.2l8.2-4.8c4.5-3.2 11.1-3 18.4 1.2 9.2 5.3 17.3 15.8 21.5 26.9 1.4 0 3 .5 4.6 1.5 6 3.5 10.9 11.9 10.9 18.9v.4c1.7.1 3.6.7 5.6 1.9 7.7 4.4 13.9 15.3 13.9 24.1 0 4.4-1.5 7.5-4 9h-.1l-20.2 11.7-4.4-21.2-59-34c-7.5-4.4-13.9-13.8-16.1-22.9l-16.2-5.1z" fill="url(#SVGID_17_)"/><linearGradient id="SVGID_18_" gradientUnits="userSpaceOnUse" x1="297.129" y1="16.135" x2="417.766" y2="16.135" gradientTransform="matrix(-.866 -.5 0 1.1547 430.98 356.897)"><stop offset="0" stop-color="#c0bff6"/><stop offset=".294" stop-color="#c5c4f7"/><stop offset=".64" stop-color="#d3d2f9"/><stop offset="1" stop-color="#e9e9fd"/></linearGradient><path d="M86 166.1c2.6 1.5 5.1 3.7 7.4 6.2 3.1-9.9 12.5-13 23.7-6.6 9.2 5.3 17.3 15.8 21.5 26.9 1.4 0 3 .5 4.6 1.5 6 3.5 10.9 11.9 10.9 18.9v.4c1.7.1 3.6.7 5.6 1.9 7.7 4.4 13.9 15.3 13.9 24.1 0 8.9-6.2 12.5-13.9 8L86 204.9c-9.3-5.4-16.8-18.4-16.8-29.2 0-10.7 7.5-15 16.8-9.6z" fill="url(#SVGID_18_)"/><path class="st11" d="M92.7 172.7c-2.2-2.5-4.7-4.7-7.4-6.2-4.5-2.6-8.7-2.9-11.7-1.3 3.1-2.1 7.5-1.9 12.4.9 2.5 1.4 4.9 3.4 7 5.8-.1.2-.2.5-.3.8zm80.3 67.1c0-8.9-6.2-19.7-13.9-24.1-2-1.2-3.9-1.8-5.6-1.9v-.4c0-7-4.9-15.4-10.9-18.9-1.7-1-3.2-1.4-4.6-1.5-4.3-11.1-12.3-21.6-21.5-26.9-6.7-3.9-12.9-4.3-17.3-1.8 4.5-2.9 10.9-2.7 18 1.4 9.2 5.3 17.3 15.8 21.5 26.9 1.4 0 3 .5 4.6 1.5 6 3.5 10.9 11.9 10.9 18.9v.4c1.7.1 3.6.7 5.6 1.9 7.7 4.4 13.9 15.3 13.9 24.1 0 4.6-1.6 7.7-4.3 9.1 2.2-1.5 3.6-4.5 3.6-8.7z"/><linearGradient id="SVGID_19_" gradientUnits="userSpaceOnUse" x1="326.407" y1="270.176" x2="377.811" y2="270.176" gradientTransform="matrix(-1 0 0 1 558.22 0)"><stop offset="0" stop-color="#5761d7"/><stop offset=".073" stop-color="#5472d8"/><stop offset=".279" stop-color="#4e9cdb"/><stop offset=".48" stop-color="#49bddd"/><stop offset=".671" stop-color="#45d5df"/><stop offset=".849" stop-color="#43e3e0"/><stop offset="1" stop-color="#42e8e0"/></linearGradient><path fill="url(#SVGID_19_)" d="M230 285.9l1.8-1.2-50.4-30.3-1 1.7z"/><linearGradient id="SVGID_20_" gradientUnits="userSpaceOnUse" x1="209.55" y1="252.663" x2="275.229" y2="252.663" gradientTransform="matrix(-1 0 0 1 558.22 0)"><stop offset="0" stop-color="#42e8e0"/><stop offset=".151" stop-color="#43e3e0"/><stop offset=".329" stop-color="#45d5df"/><stop offset=".52" stop-color="#49bddd"/><stop offset=".721" stop-color="#4e9cdb"/><stop offset=".927" stop-color="#5472d8"/><stop offset="1" stop-color="#5761d7"/></linearGradient><path d="M303.2 284.3c-.4 0-.7-.2-.9-.5-.3-.5-.1-1.1.4-1.4l42.9-23.3-62.2-36.2c-.5-.3-.6-.9-.4-1.4.3-.5.9-.6 1.4-.4l63.7 37.1c.3.2.5.5.5.9s-.2.7-.5.9l-44.5 24.1c-.1.1-.2.2-.4.2z" fill="url(#SVGID_20_)"/><linearGradient id="SVGID_21_" gradientUnits="userSpaceOnUse" x1="194.986" y1="305.281" x2="342.361" y2="305.281"><stop offset="0" stop-color="#42e8e0"/><stop offset=".151" stop-color="#43e3e0"/><stop offset=".329" stop-color="#45d5df"/><stop offset=".52" stop-color="#49bddd"/><stop offset=".721" stop-color="#4e9cdb"/><stop offset=".927" stop-color="#5472d8"/><stop offset="1" stop-color="#5761d7"/></linearGradient><path d="M268.7 348.2c-.2 0-.3 0-.5-.1l-72.7-42c-.3-.2-.5-.5-.5-.9s.2-.7.5-.9l72.7-42c.3-.2.7-.2 1 0l72.7 42c.3.2.5.5.5.9s-.2.7-.5.9l-72.7 42c-.2.1-.4.1-.5.1zM198 305.3l70.7 40.8 70.7-40.8-70.7-40.8-70.7 40.8z" fill="url(#SVGID_21_)"/><linearGradient id="SVGID_22_" gradientUnits="userSpaceOnUse" x1="275.992" y1="326.971" x2="303.099" y2="283.591" gradientTransform="matrix(-1 0 0 1 558.22 0)"><stop offset="0" stop-color="#42e8e0"/><stop offset=".151" stop-color="#43e3e0"/><stop offset=".329" stop-color="#45d5df"/><stop offset=".52" stop-color="#49bddd"/><stop offset=".721" stop-color="#4e9cdb"/><stop offset=".927" stop-color="#5472d8"/><stop offset="1" stop-color="#5761d7"/></linearGradient><path fill="url(#SVGID_22_)" d="M268.7 333.1l48.2-27.8-48.2-27.9-48.3 27.9z"/><path class="st30" d="M256.4 289.6s-.8.8-1.7 1.8-3.2 2.3-4.3 2.9-5.6 3.9-6.6 7.3 2.2 3.9 5.5 3.4 6.5-3.5 7.4-4.6c.9-1.1 4.1-3.5 8.2-5.5s1.7-4.9 1.7-4.9l-10.2-.4zm29.9 10.8s.6 1.5.8 3.5c.1 2 .3 6.2.4 7.4.1 1.2 0 4.3-2.2 7.1-2.3 2.8-3.4 4-6.3 2.8-2.9-1.2-2.7-6.1-2.1-8.6.6-2.5 1.2-8.1 1.2-8.7 0-.6.2-1 .2-1l8-2.5z"/><path class="st6" d="M247.8 231.9s.1 22.3 5 34.3c0 0 3.5 10.5 3.6 22.9 0 0-.9 2.1.3 3.9 1.2 1.8 8.8 3.5 10.2-2.1 1.4-5.7 1.2-16.4-.1-20.9s.9-16.7.9-16.7 2.1 1.4 4.6 10.3c2.5 8.9 4.4 12.3 5.3 14.8.9 2.5 1.4 17.4.6 24.7 0 0 6.2 1 8-1.9 1.9-2.9 2.8-18.2 2.5-23.1-.3-4.9-2-20.6-1.6-25.4.4-4.8 1.5-8.7.5-13.6s-33.3-16.4-33.3-16.4l-6.5 9.2z"/><path class="st30" d="M287.1 252.8c.4-4.8 1.5-8.7.5-13.6-.4-1.8-5.2-4.6-11-7.3-10-1.2-22.6-2.5-23.5-2.4-.8.1-2.9.8-4.6 1.5l-.7 1s0 1.4.1 3.6c2.3.8 6.8.1 6.8.1.6 1.6 4.3 7.2 9.1 9.8 4.8 2.5 19 2 19.8 3 .8.9.6 13.2.5 14.7-.1 1.6 1.1 11.4 2.2 20 1.1 8.5-1.1 18.8-1.2 19.2.5-.3.9-.6 1.2-1.1 1.9-2.9 2.8-18.2 2.5-23.1-.5-4.9-2.1-20.6-1.7-25.4z"/><path class="st8" d="M260.5 159.2s-7.3 1.5-9.7 2c-.4.1-.7.4-.9.7-.7 1.8-2.6 7.2-1.5 15.4 1.4 10 .7 16.6.7 16.6l-3.8 17.3s-4.6 16.5-4.3 17c.4.5 9.5 7.8 12.4 6.9 2.9-.9 2-2.6 2-2.6s2.1 12.1 12.5 12.2c10.5.1 19 .4 20.9-3.8 1.9-4.2.1-22-1.6-29.1-1.7-7.1-5.7-21.2-5.7-21.2l15.7-16.6-12.8-10.3s-3-5.9-4.2-6.7c-1.3-.8-2-.2-2-.2l-17.7 2.4z"/><linearGradient id="SVGID_23_" gradientUnits="userSpaceOnUse" x1="651.274" y1="263.477" x2="665.201" y2="263.477" gradientTransform="rotate(4.726 835.553 -4710.323)"><stop offset="0" stop-color="#5761d7"/><stop offset=".073" stop-color="#5472d8"/><stop offset=".279" stop-color="#4e9cdb"/><stop offset=".48" stop-color="#49bddd"/><stop offset=".671" stop-color="#45d5df"/><stop offset=".849" stop-color="#43e3e0"/><stop offset="1" stop-color="#42e8e0"/></linearGradient><path d="M253.7 231.3c0 .6-.4 1.5-2.3 2.1-2 .6-6.9-2.5-10.2-4.9 1.6 1.4 9.5 7.4 12.2 6.6.6-.2 1-.4 1.3-.6-.5-1.4-.8-2.5-1-3.2z" fill="url(#SVGID_23_)"/><linearGradient id="SVGID_24_" gradientUnits="userSpaceOnUse" x1="670.963" y1="267.995" x2="700.101" y2="267.995" gradientTransform="rotate(4.726 835.553 -4710.323)"><stop offset="0" stop-color="#5761d7"/><stop offset=".073" stop-color="#5472d8"/><stop offset=".279" stop-color="#4e9cdb"/><stop offset=".48" stop-color="#49bddd"/><stop offset=".671" stop-color="#45d5df"/><stop offset=".849" stop-color="#43e3e0"/><stop offset="1" stop-color="#42e8e0"/></linearGradient><path d="M288.8 239.5c-2 4.4-11 4.2-22 4-2.8 0-5-.9-6.8-2.1 1.9 1.9 4.4 3.3 8 3.3 10.5.1 19 .4 20.9-3.8.6-1.4.8-4.2.8-7.7-.1 2.9-.3 5.1-.9 6.3z" fill="url(#SVGID_24_)"/><path d="M279.9 156.9s2.6 3.3-1.4 7.6c-2.4 2.6-6.7 8.3-10.3 14.3-2.3 3.7-4.3 5.7-5.5 8.9 0 0-.1-3.8-.1-9.8 0-5.6.1-11.4.4-12.9.6-3 14-9.6 16.9-8.1z" fill="#f0f6ff"/><path class="st34" d="M269.7 166.4s-1.4.8-1.9.7c-.5-.1-2-1.6-2-1.6s-3.8-.2-4.2-1.8c-.4-1.6-.6-3.3-1-4.1-.4-.9-1.9-5-1.9-6.6 0-1.6.2-4.6-.5-6.2-.7-1.6-1.2-17.2 13.8-16.4 15 .8 10 16.3 10 16.3s1.1.5.4 2.5c-.7 2-.9 2.2-1.2 3.2-.4 1-.5 1.6-1.5 2.4l-.3 1.8s.6 2.8-1.3 5.5c-1.9 2.9-8.4 4.3-8.4 4.3z"/><path class="st6" d="M250.4 161.4s-1.6.2-7.1 13.2c-3.1 7.2-7.8 14.7-8.8 20.1-1.1 5.4-.7 11.2.4 11.7 1 .4 19.5 7.9 25.3 10.2.3.1.7-.1.7-.4l1.8-9-11.5-4.8s-2.1-2.8-4.2-3.8c0 0 2.4-4.2 2.3-5.4-.1-1.2.5-13.3-.7-18.2-1.2-5.1 1.8-13.6 1.8-13.6z"/><path class="st34" d="M256.3 196.1s-1.6-1.1-2-1.3c-.4-.2-2.5-.9-2.9-1.1-.3-.1-1.5-.1-2.2 0-.2 0-.4.1-.5.3-.5.9-2 3.5-1.8 4.6 0 0 3.8 2.5 4.2 3.6l.6.1c0 .1 2.7-5.4 4.6-6.2z"/><path class="st6" d="M287.3 211.8c-.4-1.7-.9-3.8-1.5-6l-23.7 9.5s6.8 8.8 19.2 8.6c3.4-.1 5.9-1.2 7.7-2.2-.6-3.9-1.2-7.5-1.7-9.9z"/><path class="st6" d="M297.3 174.1s-6.2.7-11.4 8.5-9.1 16.9-9.1 16.9l-.2 1c-.5 2.7-3.4 4.2-5.9 3-5.2-2.5-13-6.3-14.4-7.4 0 0-4.7 2.5-6.2 8.6-1.1 4.9-.9 4.9-.9 4.9s20.6 10.3 28.7 10.4c8.1.1 18.9-26.1 20.2-31.6s2.7-12.7-.8-14.3z"/><path d="M297.3 174.1s-6.2.7-11.4 8.5-9.1 16.9-9.1 16.9l-.2 1c-.5 2.7-3.4 4.2-5.9 3-5.2-2.5-13-6.3-14.4-7.4 0 0-4.7 2.5-6.2 8.6-1.1 4.9-.9 4.9-.9 4.9s20.6 10.3 28.7 10.4c8.1.1 18.9-26.1 20.2-31.6s2.7-12.7-.8-14.3z" fill="#4846a5"/><path class="st8" d="M273.7 204.8s2.6 2.5 3.8 1.2c1.2-1.3.8-1.5.8-1.5s2.4 0 2.7-1.4c.3-1.5 1.5-.7 1.6-2.3.1-1.7-1.9-1.4-1.9-1.4l-7 5.4z"/><path class="st34" d="M270.5 203.4s.7-.7 1.7-1.4c1-.8 2.5-4 2.8-4.3.3-.3 3.5-2.6 5-2.6s.3 1.7 0 1.9c-.4.2-1.9.9-1.9.9s-1.6 1.2-1.7 1.4c-.2.2 4.2-.2 4.9.2.7.4.5 1.6 0 1.9-.5.3-.9.3-.9.3s.5 1.3-.9 1.9c-1.3.6-1.6.2-1.6.2s-.2 2.3-2.3 1.8l-5.1-2.2z"/><path d="M258.2 138.9s-2.1 6.2 3.1 4.6c5.2-1.7 10-4.5 11.6-3.3 1.2.9 1.1 3.5 1 4.7 0 .4.1.8.3 1.2l1.5 2.3c.2.3.3.6.3.9l.1 1.6c0 .4.3.7.7.7h.4c.4 0 .7-.2.8-.6l.5-2.3s1.3-3 3.8-1.8c0 0 1.8-2.3 1.3-7.2-.4-5-2.5-10.1-12.2-11.2-9.8-1.2-13.2 10.4-13.2 10.4z" fill="#aa8383"/><path d="M272.2 172l-1.4-1.2s-1.4 1.1-1.9 2.3c-.6 1.2-.1 4.9-.1 4.9l-.5.7-.5-1-.3-4.5s.6-3.3.6-3.4c.1-.1 2.8.4 2.8.4s.9.9 1.3 1.8zm-6.8-4.6s-1.6.1-2.3.6c0 0 1.6.1 1.9.2.2 0 .4-.8.4-.8z" fill="#c4ccd6"/><path class="st6" d="M268.3 167.8l2.5 2.5s-2.3 1-3 3c0 0-2.8.5-3.1-.6-.2-1 .1-3.6-.2-4.8-.3-1.1 3.8-.1 3.8-.1z"/><path class="st6" d="M264.9 172.7s-.5 2.1-1.1 3c-.5.9-1.1 1.8-1.1 1.8l-.2 12.5s4.8-9.3 5.9-11.2c0 0 0-4.6-.5-5.4-.5-.9-3-.7-3-.7z"/><path d="M277.7 154.6c-3.2 8.6-11.8 11-11.8 11s1.5 1.5 2 1.6c.5.1 1.9-.7 1.9-.7s6.5-1.4 8.5-4.1c1.9-2.7 1.3-5.5 1.3-5.5l.3-1.8c-1.5.2-2.2-.5-2.2-.5z" fill="#e2b1a6"/><path class="st6" d="M284.3 164.9s-1.3 4.1-1.4 4.2-3-.2-3-.2l1.3 2.6s-14.7 15-17.8 23.1c0 0 7-10.3 19.2-22.4l-1.6-2.6 2.9.6.4-5.3zm-23.4-4.2l-.8.8.9.9-2.7 2.3s-1.2 16.7 1.7 27.9c0 0-4.1-10.3-2.7-28.4l2.9-1.9-.9-.9 1.6-.7z"/><path class="st30" d="M267.6 253.4s.1 0 0 0l-3.5-3.9c1.6 2.5-.6 13.4-.9 15.9-.3 2.5 1.8 7.8 2.4 13.9.7 6.1-1.2 14.8-1.2 14.8 1.1-.6 1.9-1.6 2.3-3.2 1.4-5.7 1.2-16.4-.1-20.9-1.1-4.4 1-16.6 1-16.6z"/><linearGradient id="SVGID_25_" gradientUnits="userSpaceOnUse" x1="657.575" y1="231.051" x2="704.967" y2="231.051" gradientTransform="rotate(4.726 835.553 -4710.323)"><stop offset="0" stop-color="#5761d7"/><stop offset=".073" stop-color="#5472d8"/><stop offset=".279" stop-color="#4e9cdb"/><stop offset=".48" stop-color="#49bddd"/><stop offset=".671" stop-color="#45d5df"/><stop offset=".849" stop-color="#43e3e0"/><stop offset="1" stop-color="#42e8e0"/></linearGradient><path d="M277.9 219.9c8.1.1 18.9-26.1 20.2-31.6.2-.9.4-1.9.6-2.8 0 .1-2.3 5.7-4.4 10.8-2.2 5.1-13.3 20.3-18.8 21.1-5 .8-22.6-8-26-9.7-.4 1.9-.2 1.9-.2 1.9s20.6 10.2 28.6 10.3z" fill="url(#SVGID_25_)"/><path d="M277 151.5c.4 0 .7-.2.8-.6l.5-2.3s1.3-3 3.8-1.8c0 0 1.7-2.2 1.4-6.8-3 4.2-9.4 6-9.4 6l1.5 2.3c.2.3.3.6.3.9l.1 1.6c0 .4.3.7.7.7h.3z" fill="#936d6d"/><path class="st6" d="M208.1 38.1l46.7 27c2.2 1.3 3.9 4.6 3.9 7.5v44.5c0 2.9-1.8 4.2-3.9 3l-55.2-31.8 8.5-50.2z"/><linearGradient id="SVGID_26_" gradientUnits="userSpaceOnUse" x1="315.613" y1="89.344" x2="394.348" y2="23.278" gradientTransform="matrix(-1 0 0 1 558.22 0)"><stop offset="0" stop-color="#5761d7"/><stop offset=".178" stop-color="#5c66d9"/><stop offset=".388" stop-color="#6a73df"/><stop offset=".613" stop-color="#8289e8"/><stop offset=".849" stop-color="#a3a7f5"/><stop offset="1" stop-color="#bcbeff"/></linearGradient><path d="M164.8 12.7l2.3-1.6c.7-.5 1.7-.6 2.8.1l79.5 45.9c2.2 1.3 3.9 4.6 3.9 7.5v44.5c0 1.5-.5 2.6-1.3 3.1l-2.4 1.7-.1-1.7c-.1 0-.1-.1-.2-.1l-79.5-45.9c-2.2-1.3-3.9-4.6-3.9-7.5V14.1c0-.4 0-.8.1-1.2l-1.2-.2z" fill="url(#SVGID_26_)"/><linearGradient id="SVGID_27_" gradientUnits="userSpaceOnUse" x1="314.022" y1="69.593" x2="322.622" y2="62.376" gradientTransform="matrix(-1 0 0 1 558.22 0)"><stop offset="0" stop-color="#c0bff6"/><stop offset=".294" stop-color="#c5c4f7"/><stop offset=".64" stop-color="#d3d2f9"/><stop offset="1" stop-color="#e9e9fd"/></linearGradient><path d="M253 62.8l-21 12.1-5.3-3 23.8-13.8c1.2 1.2 2.2 2.9 2.5 4.7z" fill="url(#SVGID_27_)"/><linearGradient id="SVGID_28_" gradientUnits="userSpaceOnUse" x1="426.704" y1="403.473" x2="426.704" y2="355.816" gradientTransform="matrix(-.866 -.5 0 1.1547 576.732 -161.7)"><stop offset="0" stop-color="#c0bff6"/><stop offset=".294" stop-color="#c5c4f7"/><stop offset=".64" stop-color="#d3d2f9"/><stop offset="1" stop-color="#e9e9fd"/></linearGradient><path d="M167.5 67.9l79.5 45.9c2.2 1.3 3.9-.1 3.9-3V66.3c0-2.9-1.8-6.3-3.9-7.5l-79.5-45.9c-2.2-1.3-3.9.1-3.9 3v44.5c-.1 2.9 1.7 6.2 3.9 7.5z" fill="url(#SVGID_28_)"/><path class="st11" d="M250.4 111V66.5c0-2.9-1.8-6.3-3.9-7.5L167 13.1c-.9-.5-1.6-.6-2.3-.3.7-.5 1.7-.5 2.7.1l79.5 45.9c2.2 1.3 3.9 4.6 3.9 7.5v44.5c0 1.8-.6 2.9-1.6 3.3.8-.5 1.2-1.6 1.2-3.1z"/><path d="M174.8 39.9l64.9 37.4c.5.3.9.4 1.2 0V67.2c0-.8-.5-1.7-1-2l-65.4-37.7c-.1 0-.1-.1-.2-.1-.5.1-.5.5-.5 1.2l-.2 9.4c.1.8.7 1.5 1.2 1.9zm-.1 21.3l65 37.4c.5.3 1.1.6 1.2 0V88.5c0-.8-.5-1.7-1-2l-65.4-37.7c-.1 0-.1-.1-.2-.1-.5-.2-.6.5-.6 1.2v9.3c0 .8.4 1.7 1 2z" fill="#5761d7"/><path class="st11" d="M174.4 27.4v10.1c0 .8.5 1.7 1 2l65.4 37.7c.1 0 .1 0 .2.1-.1.6-.5.8-1 .5L174.5 40c-.6-.3-1-1.2-1-2v-9.8c0-.7.4-1 .9-.8zm0 21.4v10.1c0 .8.5 1.7 1 2l65.4 37.7c.1 0 .1 0 .2.1-.1.6-.5.8-1 .5l-65.4-37.7c-.6-.3-1-1.2-1-2v-9.8c-.1-.7.3-1.1.8-.9z"/><path class="st11" d="M222.2 62.6l-.8 1.5-1.5-1.9 1.2-1.2-1.7-1.8.6-1.5 1.6 1.9-.2-2.3 1.9 1.1-.2 2 1.6-.1.6 2.1-1.7-.2 1.1 2.5-1.5.2-1-2.3zm-7.5-4.3l-.8 1.5-1.5-1.9 1.2-1.2-1.7-1.8.6-1.5 1.6 1.9-.2-2.3 1.9 1.1-.2 2 1.6-.1.6 2.1-1.7-.2 1.1 2.5-1.5.2-1-2.3zm-7.5-4.4l-.8 1.5-1.5-1.9 1.2-1.2-1.7-1.8.6-1.5 1.6 1.9-.2-2.3 1.9 1.1-.2 2 1.6-.1.6 2.1-1.7-.2 1.1 2.5-1.5.2-1-2.3zm-7.5-4.3l-.8 1.5-1.5-1.9 1.2-1.2-1.7-1.8.6-1.5 1.6 1.9-.2-2.3 1.9 1.1-.2 2 1.6-.1.6 2.1-1.7-.2 1.1 2.5-1.5.2-1-2.3zm-7.5-4.3l-.8 1.5-1.5-1.9 1.2-1.2-1.7-1.8.6-1.5 1.6 1.9-.2-2.3 1.9 1.1-.2 2 1.6-.1.6 2.1-1.7-.2 1.1 2.5-1.5.2-1-2.3zm30 38.7l-.8 1.5-1.5-1.9 1.2-1.2-1.7-1.8.6-1.5 1.6 1.9-.2-2.3 1.9 1.1-.2 2 1.6-.1.6 2.1-1.7-.2 1.1 2.5-1.5.2-1-2.3zm-7.5-4.3l-.8 1.5-1.5-1.9 1.2-1.2-1.7-1.8.6-1.5 1.6 1.9-.2-2.3 1.9 1.1-.2 2 1.6-.1.6 2.1-1.7-.2.9 2.7-1.5.2-.8-2.5zm-7.5-4.3l-.8 1.5-1.5-1.9 1.2-1.2-1.7-1.8.6-1.5 1.6 1.9-.2-2.3 1.9 1.1-.2 2 1.6-.1.6 2.1-1.7-.2 1.1 2.5-1.5.2-1-2.3zm-7.5-4.4l-.8 1.5-1.5-1.9 1.2-1.2-1.7-1.8.6-1.5 1.6 1.9-.2-2.3 1.9 1.1-.2 2 1.6-.1.6 2.1-1.7-.2 1.1 2.5-1.5.2-1-2.3zm-7.5-4.3l-.8 1.5-1.5-1.9 1.2-1.2-1.7-1.8.6-1.5 1.6 1.9-.2-2.3 1.9 1.1-.2 2 1.6-.1.6 2.1-1.7-.2 1.1 2.5-1.5.2-1-2.3z"/><path class="st45" d="M189.4 285.6l-9.9 5.7-9.9-5.7 9.9-5.7z"/><path class="st46" d="M222.4 241.1l-9.9 5.7-9.9-5.7 9.9-5.7zm-44-151.9l-9.9 5.7-9.9-5.7 9.9-5.7z"/><path class="st45" d="M233.5 260.2l-10 5.7-9.9-5.7 9.9-5.8zm121-31.8l-9.9 5.7-9.9-5.7 9.9-5.7zm-233.3-89.5l-9.9 5.7-9.9-5.7 9.9-5.7zm240-.2l-9.9 5.8-9.9-5.8 9.9-5.7z"/><path class="st46" d="M56.2 148.9l-9.9 5.8-9.9-5.8 9.9-5.7z"/><linearGradient id="SVGID_29_" gradientUnits="userSpaceOnUse" x1="48.24" y1="101.13" x2="135.379" y2="101.13"><stop offset="0" stop-color="#42e8e0"/><stop offset=".151" stop-color="#43e3e0"/><stop offset=".329" stop-color="#45d5df"/><stop offset=".52" stop-color="#49bddd"/><stop offset=".721" stop-color="#4e9cdb"/><stop offset=".927" stop-color="#5472d8"/><stop offset="1" stop-color="#5761d7"/></linearGradient><path d="M91.8 127.1c-.3 0-.6-.1-.9-.2l-41.8-24.1c-.6-.3-.9-.9-.9-1.6 0-.6.3-1.2.9-1.6l41.8-24.1c.6-.3 1.3-.3 1.8 0l41.8 24.1c.6.3.9.9.9 1.6 0 .6-.3 1.2-.9 1.6l-41.8 24.1c-.3.1-.6.2-.9.2zm.1-2zm-41.5-24L91.8 125l41.4-23.9-41.4-23.9-41.4 23.9z" fill="url(#SVGID_29_)"/><linearGradient id="SVGID_30_" gradientUnits="userSpaceOnUse" x1="54.191" y1="99.456" x2="107.802" y2="99.456"><stop offset=".247" stop-color="#5761d7"/><stop offset=".436" stop-color="#6c74df"/><stop offset=".825" stop-color="#a2a6f5"/><stop offset="1" stop-color="#bcbeff"/></linearGradient><path fill="url(#SVGID_30_)" d="M129.4 92.4v-7.6l-37.6 20.8-37.6-20.8v7.6l37.6 21.7z"/><linearGradient id="SVGID_31_" gradientUnits="userSpaceOnUse" x1="54.191" y1="84.801" x2="129.428" y2="84.801"><stop offset="0" stop-color="#c0bff6"/><stop offset=".294" stop-color="#c5c4f7"/><stop offset=".64" stop-color="#d3d2f9"/><stop offset="1" stop-color="#e9e9fd"/></linearGradient><path fill="url(#SVGID_31_)" d="M91.8 106.5L54.2 84.8l37.6-21.7 37.6 21.7z"/><path opacity=".5" fill="#fff" d="M91.8 105.9L54.7 84.5l-.5.3 37.6 21.7 37.6-21.7-.5-.3z"/><path fill="#0f054c" d="M91.8 98.2L68.6 84.8l23.2-13.4 23.3 13.4z"/><linearGradient id="SVGID_32_" gradientUnits="userSpaceOnUse" x1="68.553" y1="84.801" x2="115.066" y2="84.801"><stop offset="0" stop-color="#42e8e0"/><stop offset=".151" stop-color="#43e3e0"/><stop offset=".329" stop-color="#45d5df"/><stop offset=".52" stop-color="#49bddd"/><stop offset=".721" stop-color="#4e9cdb"/><stop offset=".927" stop-color="#5472d8"/><stop offset="1" stop-color="#5761d7"/></linearGradient><path opacity=".5" fill="url(#SVGID_32_)" d="M91.8 98.2L68.6 84.8l23.2-13.4 23.3 13.4z"/><linearGradient id="SVGID_33_" gradientUnits="userSpaceOnUse" x1="91.809" y1="68.696" x2="115.066" y2="68.696"><stop offset="0" stop-color="#42e8e0"/><stop offset=".151" stop-color="#43e3e0"/><stop offset=".329" stop-color="#45d5df"/><stop offset=".52" stop-color="#49bddd"/><stop offset=".721" stop-color="#4e9cdb"/><stop offset=".927" stop-color="#5472d8"/><stop offset="1" stop-color="#5761d7"/></linearGradient><path opacity=".5" fill="url(#SVGID_33_)" d="M91.8 52.6L115.1 66v18.8L91.8 71.4z"/><linearGradient id="SVGID_34_" gradientUnits="userSpaceOnUse" x1="68.553" y1="68.696" x2="91.81" y2="68.696"><stop offset="0" stop-color="#42e8e0"/><stop offset=".151" stop-color="#43e3e0"/><stop offset=".329" stop-color="#45d5df"/><stop offset=".52" stop-color="#49bddd"/><stop offset=".721" stop-color="#4e9cdb"/><stop offset=".927" stop-color="#5472d8"/><stop offset="1" stop-color="#5761d7"/></linearGradient><path opacity=".5" fill="url(#SVGID_34_)" d="M91.8 71.4L68.6 84.8V66l23.2-13.4z"/><linearGradient id="SVGID_35_" gradientUnits="userSpaceOnUse" x1="68.553" y1="66.017" x2="115.066" y2="66.017"><stop offset="0" stop-color="#42e8e0"/><stop offset=".151" stop-color="#43e3e0"/><stop offset=".329" stop-color="#45d5df"/><stop offset=".52" stop-color="#49bddd"/><stop offset=".721" stop-color="#4e9cdb"/><stop offset=".927" stop-color="#5472d8"/><stop offset="1" stop-color="#5761d7"/></linearGradient><path opacity=".5" fill="url(#SVGID_35_)" d="M91.8 79.4L68.6 66l23.2-13.4L115.1 66z"/><linearGradient id="SVGID_36_" gradientUnits="userSpaceOnUse" x1="91.81" y1="82.123" x2="115.066" y2="82.123"><stop offset="0" stop-color="#42e8e0"/><stop offset=".151" stop-color="#43e3e0"/><stop offset=".329" stop-color="#45d5df"/><stop offset=".52" stop-color="#49bddd"/><stop offset=".721" stop-color="#4e9cdb"/><stop offset=".927" stop-color="#5472d8"/><stop offset="1" stop-color="#5761d7"/></linearGradient><path opacity=".5" fill="url(#SVGID_36_)" d="M91.8 79.4v18.8l23.3-13.4V66z"/><linearGradient id="SVGID_37_" gradientUnits="userSpaceOnUse" x1="68.553" y1="82.123" x2="91.81" y2="82.123"><stop offset="0" stop-color="#42e8e0"/><stop offset=".151" stop-color="#43e3e0"/><stop offset=".329" stop-color="#45d5df"/><stop offset=".52" stop-color="#49bddd"/><stop offset=".721" stop-color="#4e9cdb"/><stop offset=".927" stop-color="#5472d8"/><stop offset="1" stop-color="#5761d7"/></linearGradient><path opacity=".5" fill="url(#SVGID_37_)" d="M68.6 66v18.8l23.2 13.4V79.4z"/></svg>